<svg version="1.1" id="Layer_1" xmlns="http://www.w3.org/2000/svg" xmlns:xlink="http://www.w3.org/1999/xlink" x="0px" y="0px"
	 width="100%" viewBox="0 0 1024 496" enable-background="new 0 0 1024 496" xml:space="preserve">
<path fill="#FFFFFF" opacity="1.000000" stroke="none" 
	d="
M439.003296,45.094864 
	C439.788330,43.784500 440.479614,42.826008 440.961334,41.771759 
	C441.730072,40.089382 444.298035,38.549553 442.496552,36.554478 
	C440.278564,34.098125 438.138275,36.375961 436.411865,37.707745 
	C431.145935,41.770020 425.961090,45.944984 420.870941,50.226185 
	C402.255890,65.882889 383.933014,81.870117 367.334137,99.700981 
	C326.119904,143.974304 290.604218,192.208099 265.192139,247.407883 
	C262.219421,253.865204 259.451263,260.435181 257.388672,268.376343 
	C265.882324,260.984100 273.526825,254.161926 281.349915,247.551102 
	C317.809082,216.741653 357.731445,191.259323 400.644165,170.439301 
	C404.892365,168.378204 408.121490,165.881805 409.847748,161.285431 
	C411.609222,156.595230 414.614410,152.535873 417.701508,148.576538 
	C426.150360,137.740631 441.217743,138.061340 449.389496,149.309387 
	C450.648712,151.042664 451.827942,152.834045 453.503235,155.264618 
	C455.555725,150.663467 458.972443,147.849258 461.917725,144.604568 
	C470.824493,134.792374 482.009888,131.476013 494.766144,132.738724 
	C501.263092,133.381821 502.290710,135.496368 499.660126,141.256561 
	C495.090485,151.262741 491.670990,161.725784 487.503723,171.884094 
	C480.833466,188.143723 472.040375,203.209671 460.873718,216.858688 
	C457.823059,220.587494 455.124725,224.609787 452.344543,228.553665 
	C443.702179,240.813446 431.484558,245.905670 416.974396,245.190399 
	C406.054657,244.652115 397.225250,234.192627 395.623077,221.478638 
	C394.353088,211.400345 396.006378,201.572418 397.956268,191.759293 
	C398.305267,190.002884 399.195221,188.289230 398.184387,186.126877 
	C392.598328,188.024323 387.958313,191.565674 383.126068,194.646973 
	C351.316803,214.930359 322.589233,238.741318 299.254913,268.639374 
	C289.872467,280.661041 283.540100,294.527954 275.907074,307.604218 
	C270.787231,316.375031 266.067719,325.378510 261.089111,334.232910 
	C253.993134,346.852905 240.966599,350.934326 227.888184,344.534515 
	C224.140488,342.700653 220.494003,340.784760 216.342484,339.956787 
	C213.502686,339.390442 212.101913,337.543488 212.496048,334.505402 
	C213.089493,329.931122 212.416122,325.565826 210.308670,321.417267 
	C209.005859,318.852570 209.057907,316.101501 210.574692,313.749420 
	C228.633438,285.745819 235.746384,253.044983 249.517578,223.191208 
	C272.591492,173.170624 301.026825,126.567108 336.064087,84.008423 
	C353.544159,62.775879 372.788696,43.136330 390.989380,22.556841 
	C392.120636,21.277756 393.481628,20.435228 394.953705,19.610363 
	C398.287964,17.742111 402.162994,16.275064 404.652557,13.571550 
	C411.465820,6.172654 417.396240,7.385045 425.122040,12.709619 
	C435.371277,19.773321 446.673248,25.306742 457.498840,31.539444 
	C459.369049,32.616196 461.292633,33.704929 462.895142,35.123116 
	C468.714874,40.273514 468.451569,43.822952 463.528900,49.681744 
	C459.917603,53.979763 454.941467,56.355404 451.452148,60.263222 
	C448.887329,59.792522 451.084259,57.761238 449.909943,56.972370 
	C449.743317,56.968769 449.488800,56.900990 449.431793,56.978485 
	C447.040527,60.228569 444.433594,62.676929 439.864777,62.832836 
	C435.936188,62.966892 433.806458,66.767181 430.683746,69.047981 
	C432.822754,60.903301 433.394073,52.344509 439.003296,45.094864 
M431.106354,200.400635 
	C431.673889,204.478149 428.820496,208.758331 431.931885,213.496124 
	C449.378815,198.320969 462.146179,180.320267 473.250275,159.572205 
	C465.145935,159.147003 458.349884,158.119293 452.249512,162.242279 
	C449.800842,163.897202 447.965729,166.795364 445.343353,167.794678 
	C437.594879,170.747467 434.914062,176.915237 433.337311,184.207520 
	C432.245880,189.255310 431.147736,194.278976 431.106354,200.400635 
z"/>
<path fill="#FFFFFF" opacity="1.000000" stroke="none" 
	d="
M643.155457,196.759613 
	C642.921570,198.169586 642.606140,199.137802 642.536316,200.123428 
	C642.397949,202.075424 641.767639,204.247757 643.618103,205.723785 
	C645.595947,207.301498 647.450012,205.766907 649.188232,205.019562 
	C688.485107,188.123932 729.474060,176.744125 771.099548,167.382889 
	C777.027344,166.049774 780.175171,170.001007 784.130188,172.505981 
	C783.482605,175.723114 781.012573,175.335159 779.278442,175.794556 
	C749.798462,183.604095 720.764648,192.803528 692.864441,205.156952 
	C675.764465,212.728363 659.610352,222.062408 646.742004,236.092361 
	C643.941772,239.145325 640.610413,239.942703 636.776184,238.842834 
	C633.170105,237.808411 632.039612,234.858826 630.657959,231.625259 
	C627.066772,223.220581 630.253906,215.409439 631.570251,207.280350 
	C634.568604,188.763245 635.879089,169.968765 640.694946,151.752029 
	C642.816650,143.726257 645.125122,135.749878 647.498230,127.213539 
	C637.679382,130.013336 636.903076,120.189400 631.809448,116.349289 
	C630.448914,115.323608 631.602600,112.854843 632.560608,111.250053 
	C634.049072,108.756706 636.281921,107.057877 638.732483,105.555199 
	C650.228516,98.506004 661.694153,91.407227 673.166748,84.319901 
	C674.016235,83.795090 674.792908,83.138504 675.676025,82.684296 
	C679.222778,80.860168 681.341309,75.989395 686.348755,77.327278 
	C692.384399,78.939850 696.551758,83.426025 700.896118,87.504715 
	C702.603210,89.107399 702.141235,91.281738 700.664307,92.924530 
	C699.229858,94.520226 697.703979,96.165085 695.902283,97.276123 
	C688.839417,101.631668 684.640076,108.142937 680.670410,115.237549 
	C671.872375,130.961838 664.860413,147.497604 657.435364,163.852829 
	C656.187805,166.600861 655.378845,169.565369 651.415833,169.441833 
	C649.854065,169.393173 649.223816,170.869308 648.817871,172.134796 
	C646.281189,180.042557 643.445374,187.886383 643.155457,196.759613 
z"/>
<path fill="#FFFFFF" opacity="1.000000" stroke="none" 
	d="
M526.545654,153.388916 
	C525.272705,146.073868 524.165649,139.175171 522.793945,132.329468 
	C520.693359,121.845741 529.292786,114.158264 539.626282,117.416016 
	C540.577820,117.715973 541.513245,118.450562 542.431702,118.411278 
	C550.614441,118.061264 552.102722,123.376610 553.636475,129.990784 
	C557.670776,147.388092 559.597961,165.034485 561.342041,182.734680 
	C561.434631,183.674576 561.630371,184.604294 561.776062,185.525665 
	C563.578247,185.361542 563.868896,184.040787 564.313477,183.092865 
	C572.303345,166.056839 581.992126,149.834137 588.775635,132.225098 
	C590.806580,126.953026 592.382324,121.504440 594.447571,116.247116 
	C596.113220,112.007225 602.659851,108.706512 607.014282,109.483734 
	C608.626709,109.771530 609.168091,110.869942 609.392151,112.277916 
	C609.769104,114.646858 609.720703,117.056168 608.314758,119.032219 
	C598.086182,133.408585 594.432434,150.655136 587.599365,166.505966 
	C583.189209,176.736420 579.429993,187.270660 575.848389,197.827972 
	C572.865662,206.620270 573.893860,215.962250 573.239807,225.063599 
	C572.744934,231.948990 571.341431,233.901093 564.773621,235.318756 
	C549.564453,238.601608 538.032715,231.001663 533.689026,215.207718 
	C530.878357,204.987686 531.540283,194.417465 529.989563,184.070251 
	C528.487122,174.045319 527.696289,163.913742 526.545654,153.388916 
z"/>
<path fill="#FFFFFF" opacity="1.000000" stroke="none" 
	d="
M97.758667,446.979309 
	C97.863205,436.417633 95.499985,427.057861 89.458351,418.823730 
	C84.663826,412.289276 78.209404,409.198151 70.077156,409.694153 
	C68.624191,409.782776 67.046196,410.126495 66.142929,408.237823 
	C66.399704,407.887054 66.637184,407.226654 66.942673,407.193512 
	C80.959557,405.673309 94.375565,407.713989 104.040077,418.645905 
	C115.991959,432.165131 116.717224,448.450317 110.494835,464.609406 
	C104.885773,479.175629 92.705688,485.757202 77.546974,486.358765 
	C65.125237,486.851685 52.668377,486.459198 39.777657,486.046234 
	C46.345520,482.536469 45.639877,476.596588 45.641964,470.925690 
	C45.648022,454.442780 45.643543,437.959900 45.629063,421.476990 
	C45.624279,416.032166 46.220093,410.313934 39.291512,407.553345 
	C45.046276,406.326447 50.455143,406.473877 55.798698,406.915192 
	C59.265564,407.201508 58.210598,410.425079 58.218220,412.522156 
	C58.293224,433.167084 58.230534,453.812439 58.264355,474.457611 
	C58.280762,484.471863 57.122364,483.924072 67.562500,483.799011 
	C82.131355,483.624451 89.660973,478.688904 94.643593,465.018921 
	C96.705513,459.362000 98.100296,453.552246 97.758667,446.979309 
z"/>
<path fill="#FFFFFF" opacity="1.000000" stroke="none" 
	d="
M543.427124,415.635986 
	C538.715088,409.909760 532.984375,407.285767 525.992188,408.682312 
	C517.143066,410.449738 513.172974,420.516510 517.703979,428.883606 
	C520.105896,433.319214 524.181824,435.975769 528.051514,438.826721 
	C533.274597,442.674774 538.790833,446.141418 543.868103,450.166718 
	C550.972229,455.798798 555.250732,462.971649 552.729675,472.375824 
	C550.129761,482.074188 542.291931,485.544708 533.375061,487.319458 
	C526.189331,488.749695 519.101196,487.755310 512.153503,485.941345 
	C507.570160,484.744659 503.659546,484.502533 501.025787,489.635040 
	C501.025787,480.464905 501.025787,471.294739 501.025787,461.426910 
	C502.870209,463.418671 502.965698,465.367828 503.432831,467.206970 
	C506.088165,477.660980 513.128174,483.823486 523.306030,484.701294 
	C530.914124,485.357513 535.648987,483.130524 537.938599,477.819183 
	C540.868408,471.022552 539.287048,464.184662 533.346252,459.543884 
	C527.447144,454.935608 521.333862,450.601501 515.312134,446.150299 
	C509.470825,441.832520 504.015625,437.173645 502.770172,429.460876 
	C500.788940,417.191711 509.619720,407.055389 523.347107,405.782654 
	C528.531006,405.301971 533.578796,405.758850 538.582764,407.536407 
	C545.443420,409.973511 545.860229,409.661255 549.590210,402.340637 
	C549.590210,412.848694 549.590210,421.974915 549.590210,431.101105 
	C547.393188,426.104919 547.194641,420.372070 543.427124,415.635986 
z"/>
<path fill="#FFFFFF" opacity="1.000000" stroke="none" 
	d="
M827.717773,464.239685 
	C832.042480,475.383606 838.561768,483.103973 851.125977,484.272186 
	C862.655212,485.344177 872.352234,482.051971 880.434448,473.167603 
	C882.168579,477.214752 880.223022,478.891602 877.948425,480.458405 
	C865.391479,489.107758 851.617249,488.773773 837.648743,485.534668 
	C804.273804,477.795471 800.783447,439.508301 816.483826,421.782318 
	C827.821411,408.981995 842.889465,404.454895 859.805237,406.200806 
	C862.604492,406.489777 865.395081,407.136169 868.110962,407.898102 
	C872.831909,409.222534 877.319946,410.283081 879.380127,403.424133 
	C880.578430,412.958862 880.322510,422.017517 880.142639,431.120514 
	C877.481262,431.117065 877.918457,429.419403 877.579651,428.269379 
	C873.791443,415.410614 863.332092,407.813599 850.122681,408.278717 
	C842.067627,408.562347 836.217041,412.654572 832.133728,419.210571 
	C823.359253,433.298492 823.164490,448.381622 827.717773,464.239685 
z"/>
<path fill="#FFFFFF" opacity="1.000000" stroke="none" 
	d="
M590.003296,313.000000 
	C590.005798,320.494385 590.130798,327.491730 589.960815,334.481903 
	C589.870300,338.206207 590.974976,339.784180 595.048523,339.826782 
	C610.202942,339.985352 618.331116,331.921661 619.540222,314.871674 
	C620.046021,307.740662 618.559021,300.942596 615.210632,294.634399 
	C611.747864,288.110779 606.520081,284.239136 598.809143,284.422363 
	C597.846863,284.445221 596.787781,284.660645 596.002747,283.796356 
	C595.828247,282.978973 596.291931,282.484863 596.963806,282.330322 
	C611.334351,279.024536 627.608398,288.791656 630.579529,303.515411 
	C634.222595,321.568756 628.581665,335.725189 612.081177,341.000793 
	C607.092834,342.595673 601.890930,342.383179 596.726074,342.356140 
	C590.257690,342.322266 583.789062,342.347992 576.152039,342.347992 
	C580.295044,338.686310 579.840393,334.722260 579.834351,330.842865 
	C579.813782,317.686737 579.803772,304.530548 579.827942,291.374451 
	C579.833252,288.502930 579.802124,285.686859 577.005066,283.422913 
	C580.789673,281.074219 584.422241,281.889526 587.851990,282.458405 
	C590.127197,282.835815 589.900085,285.230103 589.914551,287.020905 
	C589.983154,295.513611 589.980408,304.006927 590.003296,313.000000 
z"/>
<path fill="#FFFFFF" opacity="1.000000" stroke="none" 
	d="
M314.977814,445.231445 
	C320.587646,444.877228 321.497955,440.253937 324.389526,436.932404 
	C324.389526,443.347290 324.389526,449.762177 324.389526,456.374359 
	C322.184998,455.695801 322.310150,453.903229 321.635376,452.684845 
	C320.524628,450.679291 319.002777,449.002014 316.790131,448.679932 
	C310.676605,447.790009 304.496307,448.132446 298.361206,448.470825 
	C295.555359,448.625549 296.019135,451.299622 296.006042,453.207886 
	C295.943146,462.365631 295.821533,471.527069 296.018799,480.680725 
	C296.109802,484.905518 294.801483,486.892212 290.312561,486.436127 
	C286.233643,486.021667 282.060242,487.010284 277.044586,485.752747 
	C282.850281,482.961365 282.868835,478.326569 282.857208,473.595917 
	C282.813843,455.945526 282.860443,438.294922 282.825531,420.644501 
	C282.815369,415.513611 283.537445,409.996033 276.132111,408.037628 
	C276.466888,407.627197 276.801666,407.216766 277.136475,406.806335 
	C282.497345,406.806335 287.870056,406.592316 293.214478,406.888947 
	C296.277893,407.058990 295.804504,409.974579 295.832062,411.993195 
	C295.957092,421.149841 296.137451,430.314972 295.862335,439.463989 
	C295.719269,444.220612 297.223236,446.183655 302.112579,445.702148 
	C306.237976,445.295898 310.416656,445.430573 314.977814,445.231445 
z"/>
<path fill="#FFFFFF" opacity="1.000000" stroke="none" 
	d="
M945.148315,478.909302 
	C945.069397,486.293030 945.068481,486.405426 937.919250,486.345673 
	C934.217346,486.314728 930.423462,487.704468 925.108826,485.573853 
	C932.788513,483.608215 932.015503,478.477386 932.018066,473.690033 
	C932.027710,455.882385 932.047241,438.074738 932.022522,420.267151 
	C932.015686,415.388306 932.988647,410.053253 926.121460,407.934753 
	C926.366211,407.576324 926.610962,407.217865 926.855713,406.859436 
	C932.211914,406.859436 937.575745,406.690521 942.920898,406.932983 
	C945.469604,407.048584 945.126526,409.438690 945.132263,411.221893 
	C945.161987,420.541626 945.356445,429.867889 945.069153,439.178772 
	C944.915588,444.154022 946.577026,446.346100 951.656433,445.669891 
	C953.291748,445.452179 954.980469,445.637177 956.644714,445.634064 
	C963.619568,445.621094 970.900574,446.189758 972.508667,435.954559 
	C972.906250,436.292419 973.303894,436.630280 973.701477,436.968109 
	C973.701477,443.337280 973.701477,449.706451 973.701477,456.107086 
	C973.476257,456.119507 972.908508,456.213684 972.887268,456.143036 
	C970.260803,447.435883 963.316772,448.074951 956.357361,448.232117 
	C943.997375,448.511261 945.213135,446.624664 945.164551,459.448425 
	C945.140564,465.772614 945.148926,472.096893 945.148315,478.909302 
z"/>
<path fill="#FFFFFF" opacity="1.000000" stroke="none" 
	d="
M199.690811,448.241638 
	C195.565598,448.242859 191.892792,448.378723 188.235809,448.196899 
	C184.607361,448.016418 183.148346,449.431213 183.206848,453.134064 
	C183.354263,462.462860 183.126450,471.797729 183.285828,481.126099 
	C183.350327,484.900848 182.193451,486.680054 178.155701,486.446472 
	C173.878098,486.199036 169.575089,486.390869 164.946716,485.959991 
	C170.106171,483.034119 169.863388,478.402252 169.844666,473.717773 
	C169.770767,455.221985 169.721771,436.725037 169.871002,418.230164 
	C169.907303,413.731567 169.352676,409.923065 164.495361,407.503784 
	C170.253006,406.655090 175.880630,406.202637 181.464630,407.150085 
	C183.746140,407.537201 183.214203,410.088806 183.222763,411.843994 
	C183.269104,421.341675 183.400681,430.843567 183.170105,440.335907 
	C183.068710,444.510803 184.569778,446.134857 188.675110,445.672760 
	C190.484985,445.469055 192.337204,445.629730 194.170044,445.643921 
	C201.305695,445.699127 208.676605,446.211639 210.373779,436.001556 
	C212.577255,439.701935 212.911682,451.112305 211.109085,457.551392 
	C208.820053,452.005585 206.514114,447.261261 199.690811,448.241638 
z"/>
<path fill="#FFFFFF" opacity="1.000000" stroke="none" 
	d="
M766.792114,481.259399 
	C769.337524,483.640228 772.463928,483.939728 775.147095,485.877411 
	C764.790161,485.877411 754.433167,485.877411 743.453430,485.877411 
	C745.666199,483.974823 749.451660,483.664490 749.211182,480.401855 
	C749.020935,477.819305 747.957703,475.259827 747.042053,472.778717 
	C740.935059,456.230133 734.759827,439.706757 728.616211,423.171661 
	C727.433716,419.989014 729.550476,409.588074 732.015808,407.740448 
	C735.139160,405.399567 736.066467,408.194977 736.912476,410.328583 
	C740.407898,419.143799 743.783508,428.006409 747.242493,436.836243 
	C751.916748,448.768494 756.598694,460.697845 761.341187,472.603058 
	C762.570190,475.688263 763.826477,478.808960 766.792114,481.259399 
z"/>
<path fill="#FFFFFF" opacity="1.000000" stroke="none" 
	d="
M395.670532,459.998413 
	C395.669495,446.526154 395.683777,433.553436 395.660278,420.580811 
	C395.650940,415.411621 395.704773,410.176361 389.496552,407.505554 
	C395.109863,406.355682 400.489716,406.561584 405.827393,406.886780 
	C409.069458,407.084290 408.264069,409.984497 408.269745,411.965729 
	C408.328674,432.588776 408.347961,453.212189 408.278168,473.835144 
	C408.261719,478.695160 409.012512,483.029694 413.721619,486.242279 
	C405.821899,486.242279 397.922150,486.242279 390.022430,486.242279 
	C395.004456,483.286194 395.653595,478.775787 395.667389,473.969666 
	C395.680267,469.479156 395.670532,464.988556 395.670532,459.998413 
z"/>
<path fill="#FFFFFF" opacity="1.000000" stroke="none" 
	d="
M672.631226,158.388062 
	C672.078186,151.535629 673.082825,145.730301 679.470520,141.890167 
	C686.024841,137.949829 692.214661,133.406204 698.602051,129.184250 
	C704.083069,125.561417 709.806152,125.407433 715.671204,128.228592 
	C716.121399,128.445129 716.611023,128.617035 717.000671,128.916031 
	C719.351501,130.719986 723.884888,129.805847 724.158813,134.089050 
	C724.454163,138.706116 722.119202,142.423843 718.888672,145.496674 
	C716.562073,147.709625 713.678711,149.215179 710.544373,149.813583 
	C699.409180,151.939484 688.572571,155.151550 677.755737,158.462845 
	C676.184875,158.943741 674.578125,159.604782 672.631226,158.388062 
z"/>
<path fill="#FFFFFF" opacity="1.000000" stroke="none" 
	d="
M611.397095,415.836975 
	C611.164246,411.647705 608.900452,409.443939 605.597717,407.459839 
	C611.300903,406.674164 616.913818,406.278351 622.522034,407.144135 
	C624.341370,407.425018 624.230896,409.406525 624.229431,410.888214 
	C624.208008,432.699585 624.078674,454.511322 624.180542,476.322021 
	C624.204468,481.447815 621.601318,482.283295 617.269348,482.310425 
	C612.361694,482.341095 611.583435,479.840240 611.599548,475.692993 
	C611.676331,455.880707 611.548828,436.067657 611.397095,415.836975 
z"/>
<path fill="#FFFFFF" opacity="1.000000" stroke="none" 
	d="
M526.113892,320.890991 
	C527.759827,322.971375 529.193481,324.772369 531.431702,327.584167 
	C531.431702,317.717010 531.488403,309.017761 531.399048,300.319977 
	C531.370178,297.504181 531.084900,294.674530 530.691895,291.882874 
	C530.103577,287.704132 526.874390,285.525726 522.445679,282.711304 
	C529.905945,281.335327 536.059021,281.490906 542.628723,282.916290 
	C534.273804,287.024017 534.224792,294.293427 534.296509,301.779968 
	C534.409790,313.595398 534.291443,325.413544 534.195984,337.229950 
	C534.182190,338.936249 534.888428,341.239380 532.526550,341.937744 
	C530.345398,342.582703 529.305603,340.584320 528.218201,339.182648 
	C516.285095,323.800568 504.336548,308.429871 492.516418,292.961182 
	C489.803223,289.410461 487.078278,285.937866 483.190002,283.307281 
	C490.322083,280.330444 496.054749,281.493225 500.197052,286.864105 
	C508.832764,298.061188 517.340942,309.356598 526.113892,320.890991 
z"/>
<path fill="#FFFFFF" opacity="1.000000" stroke="none" 
	d="
M434.870422,336.816223 
	C430.122040,323.323883 425.616577,310.126770 420.550690,297.148407 
	C418.783783,292.621735 419.305939,288.825348 421.280121,284.808594 
	C421.791473,283.768158 422.095795,282.477448 423.523682,282.451782 
	C425.125885,282.422943 425.736389,283.661835 426.237183,284.954559 
	C428.634949,291.144104 431.044861,297.328918 433.452148,303.514801 
	C436.824005,312.179260 440.192474,320.845032 443.572021,329.506500 
	C445.597565,334.697754 448.032379,339.542816 453.919312,341.883636 
	C446.785248,341.883636 439.651215,341.883636 432.199524,341.883636 
	C432.362549,339.912537 435.386017,339.432281 434.870422,336.816223 
z"/>
<path fill="#FFFFFF" opacity="1.000000" stroke="none" 
	d="
M661.177856,442.911499 
	C654.112000,452.489960 641.594238,456.296387 629.492310,451.762482 
	C636.830872,450.748383 643.510437,451.390900 647.095886,444.757843 
	C649.625305,440.078369 651.107849,435.217010 651.036072,430.013794 
	C650.954773,424.127197 649.520203,418.575531 645.925720,413.637177 
	C642.095642,408.375153 635.884949,409.972443 629.800781,408.531769 
	C637.664795,404.564087 652.156738,407.371033 658.082397,413.205292 
	C664.878662,419.896790 666.223267,431.962555 661.177856,442.911499 
z"/>
<path fill="#FFFFFF" opacity="1.000000" stroke="none" 
	d="
M442.507874,413.530457 
	C449.246857,422.141449 450.233917,434.800568 445.066101,443.293976 
	C439.833160,451.894409 428.725830,455.425262 415.202179,452.753326 
	C415.289062,450.716705 416.941071,451.150391 418.076630,451.040955 
	C427.843018,450.100037 432.095703,446.690155 434.358765,437.362091 
	C435.706207,431.807983 435.551208,426.203827 433.664154,420.718048 
	C431.234924,413.656250 427.109009,408.839935 418.890259,409.057709 
	C417.585449,409.092255 415.826935,409.668884 414.691223,407.014374 
	C424.769196,406.476196 434.374298,405.615662 442.507874,413.530457 
z"/>
<path fill="#FFFFFF" opacity="1.000000" stroke="none" 
	d="
M851.022461,52.947437 
	C840.206787,55.279182 835.570007,62.973724 833.067322,72.692238 
	C830.232239,70.706841 830.875366,68.508926 831.255127,66.465179 
	C832.662170,58.894135 837.211609,53.140400 842.603027,48.103130 
	C848.726746,42.381592 855.909668,38.195232 863.665161,34.968922 
	C866.377136,33.840729 868.097412,34.263767 869.030151,37.164276 
	C870.627502,42.131111 872.978516,46.919933 872.871765,52.759220 
	C865.487000,52.382729 858.411377,50.954746 851.022461,52.947437 
z"/>
<path fill="#FFFFFF" opacity="1.000000" stroke="none" 
	d="
M704.827026,474.728821 
	C710.532898,460.283661 716.072937,446.165619 721.879578,431.368225 
	C724.343262,434.147522 723.080261,435.948822 722.468079,437.701233 
	C718.690979,448.512970 714.764160,459.274200 711.132080,470.134186 
	C708.671326,477.491730 710.000610,481.233673 717.057861,486.401428 
	C708.220276,486.327942 700.528442,487.224213 692.595642,485.730377 
	C697.500305,482.991028 701.897278,479.928772 704.827026,474.728821 
z"/>
<path fill="#FFFFFF" opacity="1.000000" stroke="none" 
	d="
M982.493896,468.462280 
	C982.944824,467.023132 983.016785,465.753906 984.962036,465.345886 
	C987.085693,469.101532 985.945374,473.284607 986.035217,477.222351 
	C986.276123,487.789215 986.371338,486.266205 977.014771,486.434845 
	C971.036011,486.542603 965.059998,486.794922 959.081604,486.934753 
	C957.123108,486.980530 955.129578,487.001099 953.192871,485.580963 
	C955.127869,482.894653 957.833557,483.750031 960.048584,483.766876 
	C970.953064,483.849945 978.434265,479.029572 982.493896,468.462280 
z"/>
<path fill="#FFFFFF" opacity="1.000000" stroke="none" 
	d="
M199.126282,486.908234 
	C195.984665,486.774475 193.163116,487.252777 190.454361,484.625031 
	C205.066666,484.550873 217.865402,481.827881 221.208572,464.944000 
	C223.837463,465.899963 223.681442,467.459961 223.672302,468.881775 
	C223.643402,473.373993 223.385147,477.873444 223.571609,482.355316 
	C223.700668,485.457214 222.526382,486.440552 219.545959,486.447510 
	C212.891327,486.463043 206.237305,486.741730 199.126282,486.908234 
z"/>
<path fill="#FFFFFF" opacity="1.000000" stroke="none" 
	d="
M336.304443,476.991241 
	C336.222443,487.295715 337.258514,486.270660 327.573608,486.406982 
	C321.602417,486.491028 315.634460,486.828796 309.663422,486.887085 
	C307.608917,486.907135 305.382599,487.104614 302.535828,484.638672 
	C309.795471,482.955139 316.730438,484.356415 322.809967,481.059387 
	C329.243011,477.570709 332.052856,471.617035 334.574646,463.916809 
	C337.195831,469.052063 335.907196,472.874542 336.304443,476.991241 
z"/>
<path fill="#FFFFFF" opacity="1.000000" stroke="none" 
	d="
M323.365570,412.486847 
	C318.852081,409.818817 314.220337,409.725952 309.549408,409.758179 
	C307.497192,409.772278 305.211884,410.547363 303.663239,408.413391 
	C304.025818,406.382843 305.598175,406.748260 306.817291,406.739777 
	C314.464996,406.686493 322.114136,406.773834 329.760712,406.665833 
	C332.863403,406.621979 334.521973,407.719330 334.278351,410.990814 
	C333.944702,415.471130 335.093903,420.102844 333.007355,425.906372 
	C329.770081,420.538879 328.445770,415.255493 323.365570,412.486847 
z"/>
<path fill="#FFFFFF" opacity="1.000000" stroke="none" 
	d="
M977.036316,416.010925 
	C972.342407,410.493347 966.273804,409.906738 959.987915,409.864105 
	C957.630493,409.848114 955.106934,410.277679 953.206055,408.674133 
	C953.446045,407.067413 954.288574,406.815399 955.103760,406.809937 
	C963.419434,406.754089 971.735291,406.733459 980.051147,406.732483 
	C981.659424,406.732300 983.144287,407.148438 983.194824,409.121124 
	C983.324036,414.164795 983.666626,419.228119 982.888855,424.918762 
	C979.105530,422.573181 979.833191,418.369171 977.036316,416.010925 
z"/>
<path fill="#FFFFFF" opacity="1.000000" stroke="none" 
	d="
M490.661865,306.248444 
	C490.660675,303.871307 490.660675,301.956909 490.660675,299.764679 
	C494.150604,300.773956 493.193085,302.968719 493.249084,304.557343 
	C493.512115,312.016083 493.603607,319.480682 493.789185,326.942383 
	C493.943695,333.152710 494.857361,338.972046 501.755585,341.934784 
	C495.300690,341.934784 488.845825,341.934784 482.390961,341.934784 
	C491.334534,337.603455 490.374786,329.334137 490.645477,321.657715 
	C490.820953,316.681519 490.668518,311.693756 490.661865,306.248444 
z"/>
<path fill="#FFFFFF" opacity="1.000000" stroke="none" 
	d="
M215.327881,416.718018 
	C210.333771,410.080109 203.342194,409.721405 196.306839,409.478638 
	C194.434891,409.414062 192.347977,410.365753 190.844513,408.443085 
	C191.084656,406.312378 192.709061,406.749084 193.894409,406.740143 
	C201.523895,406.682587 209.155060,406.778687 216.783386,406.667725 
	C219.903610,406.622314 221.467941,407.754883 221.265152,411.003479 
	C220.986282,415.470367 221.870316,420.044159 220.582870,425.041290 
	C217.231857,422.691010 217.737793,419.030365 215.327881,416.718018 
z"/>
<path fill="#FFFFFF" opacity="1.000000" stroke="none" 
	d="
M416.091553,303.287964 
	C413.214874,311.606140 410.346222,319.557678 407.545776,327.533203 
	C405.838348,332.395844 404.755371,337.233124 410.357635,341.728394 
	C404.129120,342.739014 399.033722,342.278992 393.675049,341.758636 
	C405.382233,334.263123 405.432678,320.749756 410.851471,310.127747 
	C412.052338,307.773773 412.743256,305.162964 413.891846,302.777710 
	C414.463104,301.591461 415.524445,300.837097 416.091553,303.287964 
z"/>
<path fill="#FFFFFF" opacity="1.000000" stroke="none" 
	d="
M726.244385,459.763794 
	C724.201477,458.372650 723.386169,456.939850 725.392822,455.303223 
	C726.977600,454.010620 728.334717,454.957214 728.970886,456.364319 
	C729.959106,458.550598 728.856812,459.738708 726.244385,459.763794 
z"/>
</svg>